# xmcd
#
# Track frame offsets:
#	150
#	18677
#	31863
#	44928
#	56111
#	69722
#	88212
#	103226
#	118090
#	129597
#
# Disc length: 1871
#
# Revision: 1
# Processed by: cddbd v1.5.1PL0 Copyright (c) Steve Scherf et al.
# Submitted via: CDex 1.51
# Normalized: r0:TRMNUM
#
DISCID=9b074d0a
DTITLE=H W Smith - Sentimental
DYEAR=2004
DGENRE=Country
TTITLE0=Farewell Party
TTITLE1=The Grand Tour
TTITLE2=Tennessee Whisky
TTITLE3=Tender Years
TTITLE4=He Stopped Loving Her Today
TTITLE5=The Cold Hard Truth
TTITLE6=Wine Colored Roses
TTITLE7=Almost Persuaded
TTITLE8=A Picture of Me (Without You)
TTITLE9=I Can't Help It If I'm Still In Love With You
EXTD=YEAR: 2004
EXTT0=
EXTT1=
EXTT2=
EXTT3=
EXTT4=
EXTT5=
EXTT6=
EXTT7=
EXTT8=
EXTT9=
PLAYORDER=
